<?xml version="1.0" encoding="iso-8859-1"?>
<!-- Uploaded to: SVG Repo, www.svgrepo.com, Generator: SVG Repo Mixer Tools -->
<svg fill="#000000" height="800px" width="800px" version="1.1" id="Layer_1" xmlns="http://www.w3.org/2000/svg" xmlns:xlink="http://www.w3.org/1999/xlink" 
	 viewBox="0 0 512 512" xml:space="preserve">
<g>
	<g>
		<path d="M473.877,84.97H38.123C17.102,84.97,0,102.072,0,123.093v265.813c0,21.021,17.102,38.123,38.123,38.123h435.755
			c21.02,0,38.122-17.102,38.122-38.123V123.093C512,102.072,494.898,84.97,473.877,84.97z M180.834,297.94v41.94
			c0,9.024-7.316,16.34-16.34,16.34H80.613c-9.024,0-16.34-7.316-16.34-16.34v-41.94c0-16.457,6.868-31.332,17.875-41.94
			c-37.512-36.153-12.037-100.221,40.406-100.221c52.431,0,77.975,64.013,40.406,100.221
			C173.966,266.608,180.834,281.483,180.834,297.94z M337.702,335.523h-93.685c-9.024,0-16.34-7.316-16.34-16.34
			s7.316-16.34,16.34-16.34h93.685c9.024,0,16.34,7.316,16.34,16.34S346.726,335.523,337.702,335.523z M431.387,273.43h-187.37
			c-9.024,0-16.34-7.316-16.34-16.34c0-9.024,7.316-16.34,16.34-16.34h187.37c9.024,0,16.34,7.316,16.34,16.34
			C447.728,266.114,440.411,273.43,431.387,273.43z M431.387,209.157h-187.37c-9.024,0-16.34-7.316-16.34-16.34
			c0-9.024,7.316-16.34,16.34-16.34h187.37c9.024,0,16.34,7.316,16.34,16.34C447.728,201.841,440.411,209.157,431.387,209.157z"/>
	</g>
</g>
</svg>